<?xml version="1.0" encoding="UTF-8"?>
<svg viewBox="-37.433242615213786 -37.433242615213786 95.23831794619016 74.86648523042757" height="74.86648523042757mm" width="95.23831794619016mm" xmlns:svgjs="http://svgjs.com/svgjs" xmlns:xlink="http://www.w3.org/1999/xlink" version="1.1" xmlns="http://www.w3.org/2000/svg" id="SvgjsSvg1074">
  <desc>Created with svg.js [http://svgjs.com]</desc>
  <defs id="SvgjsDefs1075">
  </defs>
  <defs id="SvgjsDefs1075">
  </defs>
  <g id="SvgjsG1076">
    <g transform="matrix(1,0,0,1,40.7436637878418,0)" id="SvgjsG1077">
      <g fill="none" stroke-width="0.04" stroke="blue" id="SvgjsG1078">
        <circle cy="0" cx="0" r="10.185916357881302" id="SvgjsCircle1079">
        </circle>
        <circle cy="0" cx="0" r="12.732395447351628" id="SvgjsCircle1080">
        </circle>
        <line y2="0.8658028904199107" x2="0" y1="-0.8658028904199107" x1="0" id="SvgjsLine1081">
        </line>
        <line y2="0" x2="0.8658028904199107" y1="0" x1="-0.8658028904199107" id="SvgjsLine1082">
        </line>
      </g>
      <g fill="none" stroke-width="0.1" stroke="black" id="SvgjsG1083">
        <circle cy="0" cx="0" r="2" id="SvgjsCircle1084">
        </circle>
        <path d="M-5.565686972193999 11.18759600456014  L-5.635966315176128 10.866986718902346 -5.689826638699108 10.560349863240802 -5.728512450697824 10.26904308259538 -5.75359352822651 9.991638021268084 -5.766151744660384 9.731309588706445 -5.767714450646806 9.48752038375676 -5.759632220137844 9.259839071282503 -5.743340479899307 9.049941494355089 -5.691905532635797 8.683052069868637 -5.62505565754242 8.387863272994501 -5.553687370117261 8.16199215388008 -5.489786130301434 8.006110463967506 -5.173483124941068 7.700399918189315 -5.015932663024893 7.518708830763431 -4.88238140526219 7.338021834966833 -4.772440442923305 7.16001477387093 -4.685607730193598 6.986335206275893 -4.621324652715928 6.818588264575007 -4.578898245844735 6.658343725822511 -4.557564834256337 6.507114798530145 -4.556468818745498 6.366365193734962 -4.574683889428863 6.2375161960671495 -4.611170599338089 6.121918379478773 -4.664832932962337 6.020837465108156 -4.744276379828644 5.926007374683227 -5.152722469845431 5.572206496716539 -5.36654448940843 5.366544489408431 -5.572206496716538 5.152722469845432 -5.926007374683227 4.744276379828646 -6.020837465108155 4.664832932962338 -6.121918379478772 4.61117059933809 -6.2375161960671495 4.574683889428865 -6.3663651937349615 4.556468818745499 -6.507114798530144 4.557564834256338 -6.65834372582251 4.578898245844736 -6.818588264575006 4.621324652715929 -6.986335206275892 4.685607730193599 -7.16001477387093 4.7724404429233065 -7.338021834966832 4.8823814052621906 -7.51870883076343 5.015932663024894 -7.700399918189314 5.173483124941069 -8.006110463967506 5.489786130301435 -8.16199215388008 5.553687370117263 -8.3878632729945 5.625055657542422 -8.683052069868635 5.691905532635799 -9.049941494355089 5.743340479899308 -9.259839071282501 5.759632220137846 -9.487520383756758 5.767714450646808 -9.731309588706445 5.7661517446603865 -9.991638021268084 5.753593528226512 -10.269043082595378 5.728512450697826 -10.5603498632408 5.68982663869911 -10.866986718902346 5.63596631517613 -11.18759600456014 5.565686972193999 -11.489638265789267 5.4862674461646375 A12.732395447351628 12.732395447351628 0 0 1 -12.003778045706051 4.245024216534018 L-11.84636 3.975290000000001 -11.66935 3.698890000000001 -11.49061 3.4439800000000007 -11.31198 3.210640000000001 -11.13356 2.996750000000001 -10.95836 2.8037900000000007 -10.78708 2.6303000000000005 -10.62037 2.4750200000000007 -10.46043 2.3381200000000004 -10.16463 2.1150600000000006 -9.90863 1.9536000000000007 -9.69845 1.8443500000000006 -9.54304 1.7793100000000006 -9.10321 1.7868000000000006 -8.86333 1.7697300000000005 -8.64113 1.7364000000000004 -8.43752 1.6882700000000004 -8.25331 1.6268600000000004 -8.08924 1.5537000000000005 -7.94593 1.4703900000000005 -7.82391 1.3785400000000005 -7.72361 1.2797900000000004 -7.64538 1.1758000000000004 -7.58944 1.0682600000000004 -7.55591 0.9588400000000005 -7.54503 0.8356100000000004 -7.58367 0.29662000000000044 -7.58944 4.647191701660444e-16 -7.58367 -0.29661999999999955 -7.54503 -0.8356099999999995 -7.55591 -0.9588399999999996 -7.58944 -1.0682599999999995 -7.64538 -1.1757999999999995 -7.72361 -1.2797899999999995 -7.82391 -1.3785399999999997 -7.94593 -1.4703899999999996 -8.08924 -1.5536999999999996 -8.25331 -1.6268599999999995 -8.43752 -1.6882699999999995 -8.64113 -1.7363999999999995 -8.86333 -1.7697299999999996 -9.10321 -1.7867999999999993 -9.54304 -1.7793099999999993 -9.69845 -1.8443499999999993 -9.90863 -1.9535999999999993 -10.16463 -2.1150599999999997 -10.46043 -2.3381199999999995 -10.62037 -2.4750199999999998 -10.78708 -2.6302999999999996 -10.95836 -2.803789999999999 -11.13356 -2.996749999999999 -11.31198 -3.2106399999999993 -11.49061 -3.443979999999999 -11.66935 -3.698889999999999 -11.84636 -3.9752899999999993 -12.003778045706051 -4.245024216534016 A12.732395447351628 12.732395447351628 0 0 1 -11.489638265789266 -5.486267446164637 L-11.18759600456014 -5.565686972193999 -10.866986718902346 -5.635966315176128 -10.560349863240802 -5.689826638699108 -10.26904308259538 -5.728512450697824 -9.991638021268084 -5.75359352822651 -9.731309588706445 -5.766151744660384 -9.48752038375676 -5.767714450646806 -9.259839071282503 -5.759632220137844 -9.049941494355089 -5.743340479899307 -8.683052069868637 -5.691905532635797 -8.387863272994501 -5.62505565754242 -8.16199215388008 -5.553687370117261 -8.006110463967506 -5.489786130301434 -7.700399918189315 -5.173483124941068 -7.518708830763431 -5.015932663024893 -7.338021834966833 -4.88238140526219 -7.16001477387093 -4.772440442923305 -6.986335206275893 -4.685607730193598 -6.818588264575007 -4.621324652715928 -6.658343725822511 -4.578898245844735 -6.507114798530145 -4.557564834256337 -6.366365193734962 -4.556468818745498 -6.2375161960671495 -4.574683889428863 -6.121918379478773 -4.611170599338089 -6.020837465108156 -4.664832932962337 -5.926007374683227 -4.744276379828644 -5.572206496716539 -5.152722469845431 -5.366544489408431 -5.36654448940843 -5.152722469845432 -5.572206496716538 -4.744276379828646 -5.926007374683227 -4.664832932962338 -6.020837465108155 -4.61117059933809 -6.121918379478772 -4.574683889428865 -6.2375161960671495 -4.556468818745499 -6.3663651937349615 -4.557564834256338 -6.507114798530144 -4.578898245844736 -6.65834372582251 -4.621324652715929 -6.818588264575006 -4.685607730193599 -6.986335206275892 -4.7724404429233065 -7.16001477387093 -4.8823814052621906 -7.338021834966832 -5.015932663024894 -7.51870883076343 -5.173483124941069 -7.700399918189314 -5.489786130301435 -8.006110463967506 -5.553687370117263 -8.16199215388008 -5.625055657542422 -8.3878632729945 -5.691905532635799 -8.683052069868635 -5.743340479899308 -9.049941494355089 -5.759632220137846 -9.259839071282501 -5.767714450646808 -9.487520383756758 -5.7661517446603865 -9.731309588706445 -5.753593528226512 -9.991638021268084 -5.728512450697826 -10.269043082595378 -5.68982663869911 -10.5603498632408 -5.63596631517613 -10.866986718902346 -5.565686972193999 -11.18759600456014 -5.4862674461646375 -11.489638265789267 A12.732395447351628 12.732395447351628 0 0 1 -4.245024216534019 -12.003778045706051 L-3.9752900000000015 -11.84636 -3.6988900000000013 -11.66935 -3.443980000000001 -11.49061 -3.2106400000000015 -11.31198 -2.9967500000000014 -11.13356 -2.803790000000001 -10.95836 -2.6303000000000014 -10.78708 -2.4750200000000016 -10.62037 -2.3381200000000013 -10.46043 -2.1150600000000015 -10.16463 -1.9536000000000011 -9.90863 -1.844350000000001 -9.69845 -1.779310000000001 -9.54304 -1.786800000000001 -9.10321 -1.7697300000000011 -8.86333 -1.736400000000001 -8.64113 -1.688270000000001 -8.43752 -1.626860000000001 -8.25331 -1.553700000000001 -8.08924 -1.470390000000001 -7.94593 -1.378540000000001 -7.82391 -1.2797900000000009 -7.72361 -1.1758000000000008 -7.64538 -1.0682600000000009 -7.58944 -0.9588400000000009 -7.55591 -0.8356100000000009 -7.54503 -0.29662000000000094 -7.58367 -9.294383403320888e-16 -7.58944 0.29661999999999905 -7.58367 0.8356099999999991 -7.54503 0.9588399999999991 -7.55591 1.068259999999999 -7.58944 1.175799999999999 -7.64538 1.279789999999999 -7.72361 1.3785399999999992 -7.82391 1.4703899999999992 -7.94593 1.5536999999999992 -8.08924 1.6268599999999989 -8.25331 1.6882699999999988 -8.43752 1.7363999999999988 -8.64113 1.769729999999999 -8.86333 1.7867999999999988 -9.10321 1.7793099999999988 -9.54304 1.8443499999999988 -9.69845 1.953599999999999 -9.90863 2.115059999999999 -10.16463 2.3381199999999986 -10.46043 2.475019999999999 -10.62037 2.6302999999999988 -10.78708 2.8037899999999985 -10.95836 2.9967499999999987 -11.13356 3.210639999999999 -11.31198 3.4439799999999985 -11.49061 3.6988899999999987 -11.66935 3.975289999999999 -11.84636 4.2450242165340155 -12.003778045706051 A12.732395447351628 12.732395447351628 0 0 1 5.486267446164636 -11.489638265789267 L5.5656869721939985 -11.187596004560142 5.635966315176127 -10.866986718902348 5.689826638699108 -10.560349863240804 5.728512450697823 -10.269043082595381 5.75359352822651 -9.991638021268084 5.766151744660384 -9.731309588706447 5.767714450646806 -9.48752038375676 5.759632220137843 -9.259839071282505 5.743340479899307 -9.049941494355089 5.691905532635797 -8.683052069868637 5.62505565754242 -8.387863272994501 5.553687370117261 -8.161992153880082 5.489786130301434 -8.006110463967508 5.173483124941068 -7.700399918189316 5.015932663024892 -7.5187088307634315 4.88238140526219 -7.338021834966835 4.772440442923305 -7.160014773870932 4.685607730193598 -6.986335206275894 4.621324652715928 -6.818588264575007 4.5788982458447345 -6.658343725822512 4.557564834256337 -6.507114798530146 4.556468818745498 -6.366365193734963 4.574683889428863 -6.23751619606715 4.611170599338089 -6.121918379478774 4.664832932962336 -6.020837465108157 4.744276379828644 -5.926007374683229 5.152722469845431 -5.5722064967165394 5.36654448940843 -5.366544489408432 5.572206496716538 -5.152722469845433 5.926007374683227 -4.744276379828646 6.020837465108156 -4.664832932962339 6.121918379478772 -4.611170599338091 6.2375161960671495 -4.574683889428866 6.3663651937349615 -4.5564688187455 6.507114798530144 -4.557564834256339 6.658343725822511 -4.578898245844737 6.818588264575006 -4.621324652715931 6.986335206275892 -4.6856077301936 7.16001477387093 -4.7724404429233065 7.338021834966832 -4.882381405262192 7.518708830763431 -5.015932663024895 7.700399918189314 -5.17348312494107 8.006110463967506 -5.489786130301436 8.16199215388008 -5.553687370117265 8.3878632729945 -5.625055657542424 8.683052069868635 -5.6919055326358 9.049941494355089 -5.743340479899309 9.259839071282501 -5.7596322201378465 9.48752038375676 -5.7677144506468085 9.731309588706445 -5.766151744660387 9.991638021268084 -5.753593528226513 10.269043082595378 -5.728512450697827 10.5603498632408 -5.689826638699111 10.866986718902346 -5.635966315176132 11.187596004560142 -5.565686972194001 11.489638265789267 -5.486267446164639 A12.732395447351628 12.732395447351628 0 0 1 12.003778045706051 -4.245024216534019 L11.84636 -3.9752900000000024 11.66935 -3.6988900000000022 11.49061 -3.443980000000002 11.31198 -3.2106400000000024 11.13356 -2.9967500000000022 10.95836 -2.803790000000002 10.78708 -2.630300000000002 10.62037 -2.475020000000002 10.46043 -2.3381200000000018 10.16463 -2.115060000000002 9.90863 -1.9536000000000018 9.69845 -1.8443500000000017 9.54304 -1.7793100000000017 9.10321 -1.7868000000000017 8.86333 -1.7697300000000016 8.64113 -1.7364000000000015 8.43752 -1.6882700000000015 8.25331 -1.6268600000000015 8.08924 -1.5537000000000016 7.94593 -1.4703900000000016 7.82391 -1.3785400000000014 7.72361 -1.2797900000000013 7.64538 -1.1758000000000013 7.58944 -1.0682600000000013 7.55591 -0.9588400000000015 7.54503 -0.8356100000000013 7.58367 -0.2966200000000014 7.58944 -1.3941575104981331e-15 7.58367 0.2966199999999986 7.54503 0.8356099999999986 7.55591 0.9588399999999986 7.58944 1.0682599999999987 7.64538 1.1757999999999986 7.72361 1.2797899999999987 7.82391 1.3785399999999988 7.94593 1.4703899999999985 8.08924 1.5536999999999985 8.25331 1.6268599999999984 8.43752 1.6882699999999984 8.64113 1.7363999999999984 8.86333 1.7697299999999985 9.10321 1.7867999999999982 9.54304 1.7793099999999982 9.69845 1.8443499999999982 9.90863 1.9535999999999982 10.16463 2.1150599999999984 10.46043 2.338119999999998 10.62037 2.4750199999999984 10.78708 2.6302999999999983 10.95836 2.8037899999999976 11.13356 2.996749999999998 11.31198 3.210639999999998 11.49061 3.4439799999999976 11.66935 3.698889999999998 11.84636 3.975289999999998 12.003778045706051 4.2450242165340155 A12.732395447351628 12.732395447351628 0 0 1 11.489638265789267 5.486267446164634 L11.187596004560142 5.565686972193997 10.866986718902348 5.635966315176127 10.560349863240802 5.689826638699106 10.269043082595381 5.7285124506978224 9.991638021268084 5.753593528226508 9.731309588706447 5.766151744660383 9.48752038375676 5.767714450646804 9.259839071282503 5.759632220137842 9.049941494355089 5.743340479899305 8.683052069868637 5.691905532635795 8.387863272994501 5.625055657542419 8.161992153880082 5.55368737011726 8.006110463967508 5.489786130301432 7.700399918189316 5.173483124941066 7.5187088307634315 5.015932663024891 7.338021834966835 4.882381405262189 7.160014773870932 4.772440442923304 6.986335206275893 4.685607730193597 6.818588264575007 4.621324652715927 6.658343725822512 4.578898245844734 6.507114798530146 4.557564834256336 6.366365193734962 4.556468818745497 6.23751619606715 4.574683889428862 6.121918379478773 4.611170599338088 6.020837465108157 4.6648329329623355 5.926007374683228 4.744276379828643 5.5722064967165394 5.15272246984543 5.366544489408432 5.3665444894084295 5.152722469845433 5.572206496716537 4.744276379828647 5.926007374683226 4.664832932962339 6.020837465108155 4.611170599338092 6.121918379478771 4.574683889428866 6.237516196067149 4.5564688187455005 6.366365193734961 4.557564834256339 6.507114798530143 4.578898245844737 6.65834372582251 4.621324652715931 6.8185882645750056 4.685607730193601 6.986335206275891 4.7724404429233065 7.160014773870929 4.882381405262192 7.338021834966831 5.015932663024895 7.51870883076343 5.17348312494107 7.700399918189314 5.489786130301436 8.006110463967504 5.553687370117265 8.161992153880078 5.625055657542424 8.387863272994498 5.6919055326358 8.683052069868635 5.7433404798993095 9.049941494355087 5.7596322201378465 9.259839071282501 5.7677144506468085 9.487520383756756 5.766151744660387 9.731309588706443 5.753593528226514 9.991638021268082 5.728512450697827 10.269043082595378 5.689826638699112 10.560349863240798 5.635966315176132 10.866986718902346 5.565686972194001 11.187596004560138 5.486267446164639 11.489638265789266 A12.732395447351628 12.732395447351628 0 0 1 4.24502421653402 12.00377804570605 L3.9752900000000033 11.846359999999999 3.6988900000000027 11.669349999999998 3.4439800000000025 11.49061 3.210640000000003 11.31198 2.9967500000000027 11.13356 2.8037900000000024 10.95836 2.6303000000000027 10.78708 2.475020000000003 10.62037 2.3381200000000026 10.46043 2.115060000000003 10.16463 1.9536000000000024 9.90863 1.8443500000000024 9.69845 1.7793100000000024 9.54304 1.7868000000000022 9.10321 1.7697300000000022 8.86333 1.7364000000000022 8.64113 1.688270000000002 8.43752 1.626860000000002 8.25331 1.553700000000002 8.08924 1.470390000000002 7.94593 1.378540000000002 7.82391 1.279790000000002 7.72361 1.1758000000000017 7.64538 1.0682600000000018 7.58944 0.9588400000000019 7.55591 0.8356100000000019 7.54503 0.2966200000000018 7.58367 1.8588766806641776e-15 7.58944 -0.29661999999999816 7.58367 -0.8356099999999981 7.54503 -0.9588399999999981 7.55591 -1.0682599999999982 7.58944 -1.1757999999999982 7.64538 -1.279789999999998 7.72361 -1.378539999999998 7.82391 -1.470389999999998 7.94593 -1.553699999999998 8.08924 -1.626859999999998 8.25331 -1.688269999999998 8.43752 -1.7363999999999977 8.64113 -1.7697299999999978 8.86333 -1.7867999999999977 9.10321 -1.7793099999999975 9.54304 -1.8443499999999975 9.69845 -1.9535999999999976 9.90863 -2.1150599999999975 10.16463 -2.3381199999999973 10.46043 -2.4750199999999976 10.62037 -2.6302999999999974 10.78708 -2.803789999999997 10.95836 -2.9967499999999974 11.13356 -3.2106399999999975 11.31198 -3.443979999999997 11.49061 -3.6988899999999973 11.669350000000001 -3.975289999999997 11.846360000000002 -4.245024216534015 12.003778045706053 A12.732395447351628 12.732395447351628 0 0 1 -5.486267446164637 11.489638265789266 Z" id="SvgjsPath1085">
        </path>
      </g>
    </g>
    <g transform="matrix(1,0,0,1,0,0)" id="SvgjsG1086">
      <g fill="none" stroke-width="0.04" stroke="blue" id="SvgjsG1087">
        <circle cy="0" cx="0" r="30.557749073643905" id="SvgjsCircle1088">
        </circle>
        <circle cy="0" cx="0" r="33.10422816311423" id="SvgjsCircle1089">
        </circle>
        <line y2="0.8658028904199107" x2="0" y1="-0.8658028904199107" x1="0" id="SvgjsLine1090">
        </line>
        <line y2="0" x2="0.8658028904199107" y1="0" x1="-0.8658028904199107" id="SvgjsLine1091">
        </line>
      </g>
      <g fill="none" stroke-width="0.1" stroke="black" id="SvgjsG1092">
        <circle cy="0" cx="0" r="2" id="SvgjsCircle1093">
        </circle>
        <path d="M31.7560816935449 -7.29896407275732  L31.28028655627471 -6.9002291123512425 30.829385690830637 -6.553427806065081 30.40502234000006 -6.254429300095833 30.012118679987765 -6.001470988018639 29.650295461483868 -5.789389191884503 29.324428426620702 -5.616314329210893 29.040085523734852 -5.480175445792347 28.792922057169257 -5.374288260093239 28.431439636753836 -5.244505022613935 28.2368074518711 -5.1838817844311 28.10530245021929 -5.134312868359052 27.98825724063015 -5.081786028436651 27.885756054351926 -5.026887272425636 27.797811110968734 -4.970213300151519 27.7244682891963 -4.912334983879734 27.66572989417012 -4.853847718173869 27.621568487679852 -4.7953429818117455 27.591970461749543 -4.737383815487267 27.57688724400969 -4.680569001903025 27.5783329373148 -4.612051526242667 27.650607360158276 -4.157153515912173 27.72205745898568 -3.649678102736762 27.78438626508845 -3.1410018485929267 27.83231080213658 -2.6828981149815077 27.848647997259526 -2.616341142728296 27.877922022617543 -2.5653660709839787 27.921512456353845 -2.517042348169184 27.97931123940726 -2.4719609254149715 28.05118579041847 -2.430669180272176 28.137009526690985 -2.3937455388993976 28.23662612218249 -2.3617645116694694 28.349843508841982 -2.3352656445616944 28.476495446178518 -2.3148221426869817 28.61634890308472 -2.3009782454255614 28.820039605707528 -2.2927952102290545 29.202795184930977 -2.2609927642016547 29.468942380893054 -2.222684209262556 29.77883187012021 -2.1647775044130197 30.138390325719218 -2.081940619468821 30.542775524982225 -1.9707320752061852 30.98776174621417 -1.8280840586980012 31.475051774314036 -1.6491069969989347 32.000347348275845 -1.4308243900964803 32.563130361089165 -1.1688208370885955 33.09206367252503 -0.8962828827437845 A33.10422816311423 33.10422816311423 0 0 1 33.09206367252503 0.896282882743781 L32.563130361089165 1.168820837088592 32.000347348275845 1.4308243900964768 31.475051774314036 1.6491069969989312 30.98776174621417 1.8280840586979976 30.542775524982225 1.9707320752061817 30.138390325719218 2.081940619468818 29.77883187012021 2.164777504413016 29.468942380893054 2.2226842092625523 29.202795184930974 2.260992764201652 28.820039605707528 2.292795210229051 28.61634890308472 2.3009782454255587 28.476495446178518 2.314822142686979 28.349843508841982 2.335265644561691 28.23662612218249 2.361764511669466 28.137009526690985 2.3937455388993945 28.05118579041847 2.430669180272173 27.97931123940726 2.471960925414969 27.92151245635384 2.517042348169181 27.877922022617543 2.5653660709839756 27.848647997259526 2.6163411427282934 27.83231080213658 2.682898114981504 27.78438626508845 3.1410018485929236 27.72205745898568 3.649678102736759 27.650607360158276 4.157153515912169 27.5783329373148 4.612051526242665 27.57688724400969 4.680569001903021 27.591970461749543 4.737383815487265 27.621568487679856 4.795342981811743 27.66572989417012 4.853847718173865 27.7244682891963 4.91233498387973 27.797811110968734 4.970213300151515 27.885756054351926 5.0268872724256335 27.98825724063015 5.081786028436648 28.10530245021929 5.134312868359048 28.2368074518711 5.1838817844310965 28.431439636753836 5.244505022613932 28.79292205716926 5.374288260093236 29.040085523734852 5.480175445792344 29.324428426620702 5.61631432921089 29.650295461483868 5.789389191884499 30.012118679987765 6.001470988018635 30.40502234000006 6.254429300095829 30.829385690830637 6.553427806065077 31.28028655627471 6.900229112351239 31.7560816935449 7.298964072757316 32.19645402634768 7.699113536091703 A33.10422816311423 33.10422816311423 0 0 1 31.732503866640716 9.430599104297784 L31.151055507642504 9.556952538454684 30.539637351566377 9.664369574908235 29.975745094360338 9.739257883495643 29.458736399121346 9.786016509943314 28.991992692272216 9.808633004294448 28.572603695301726 9.811389618174896 28.203857133517513 9.79834332857516 27.889539514523282 9.774071608615545 27.6225460807405 9.742190868083417 27.244601502899606 9.673845238518172 27.045733467305666 9.629030410402814 26.90706233711446 9.606205850133362 26.779434792257792 9.593172823092107 26.663216783017297 9.589465947294697 26.558717241776016 9.594574575325863 26.466261336799956 9.608027256659284 26.38614876167683 9.629309517045362 26.318651493608343 9.657895401731539 26.264039268088585 9.693290499185547 26.22256941156294 9.734951962190854 26.18956268086107 9.795012683368462 26.024705161922128 10.225103127867403 25.832845056021867 10.700314776887016 25.6324852584225 11.17200573832887 25.44493725816508 11.592697477728922 25.42580719804153 11.658506104060654 25.425671711800444 11.717288823829975 25.439260273370664 11.780933612261174 25.466774776425645 11.848874661131779 25.50837409091555 11.920571636897634 25.564237806088855 11.995460316462944 25.634517794808055 12.072964996228938 25.719317494251374 12.152522381645525 25.81877953848597 12.23355294227961 25.932974236343107 12.315468837448483 26.105284041730904 12.424400905120123 26.420858873764935 12.643320420894058 26.63219482914454 12.80957020063463 26.871613646756277 13.014663622697352 27.141581960978417 13.266181697228902 27.436185544323298 13.564683721309736 27.750230907990105 13.910713638021255 28.08274792048589 14.309357334197273 28.428525928581124 14.761043403959999 28.78490853799186 15.26933664315327 29.106709245430732 15.76982809082925 A33.10422816311423 33.10422816311423 0 0 1 28.21042636268695 17.32223558169578 L27.616087700903265 17.293793717935902 26.99770153848464 17.23930394431585 26.43364092348696 17.165694440116763 25.922146849292105 17.077048108192916 25.46545346911711 16.978091803672495 25.059641341509597 16.87220862849032 24.70683614234326 16.764168247422862 24.40951061988199 16.65937218025843 24.159866109563282 16.55947476403692 23.812488831501852 16.39563870058741 23.631995990917545 16.300880065636242 23.503957395798988 16.242942503898913 23.38405184968968 16.19732112719646 23.272753283138584 16.163661125953553 23.17049226718946 16.141549210228042 23.077704910643373 16.130614153520835 22.99481385101067 16.130436578275486 22.92221792520148 16.14057884409267 22.860305640816463 16.160633198787572 22.809466055313234 16.190141893198877 22.762039143183575 16.23961332440766 22.491483409829574 16.612380526759583 22.183166953285106 17.02174268209867 21.867551646009954 17.425504232290873 21.577511154618403 17.783320253946346 21.542000409659916 17.84193528181884 21.526655452601318 17.898679962563996 21.5233085117966 17.96367308594832 21.53230104350296 18.036420377124763 21.553926352920225 18.116441032537022 21.588503941624495 18.203236535642873 21.636329510591665 18.29629010705723 21.69764876382114 18.395084417538044 21.77274946875541 18.49909660008593 21.861851682874565 18.60777704146829 22.00009648028567 18.75759439823567 22.24825782064726 19.050731189085845 22.409364068730934 19.26601391511931 22.58754280430662 19.526085098045545 22.783214503417227 19.83890584330898 22.990521704253577 20.20348567569332 23.204307099025513 20.619005830056746 23.422317288295257 21.090127807334998 23.639408239215136 21.61591698136648 23.852091434885182 22.199129155090223 24.033390330549008 22.765854922049897 A33.10422816311423 33.10422816311423 0 0 1 22.7658549220499 24.033390330549004 L22.199129155090226 23.85209143488518 21.61591698136648 23.63940823921513 21.090127807335 23.422317288295254 20.61900583005675 23.20430709902551 20.203485675693322 22.990521704253574 19.838905843308982 22.783214503417224 19.52608509804555 22.587542804306615 19.266013915119313 22.40936406873093 19.050731189085848 22.248257820647257 18.757594398235675 22.000096480285666 18.607777041468292 21.861851682874562 18.499096600085934 21.77274946875541 18.395084417538047 21.697648763821135 18.29629010705723 21.63632951059166 18.203236535642876 21.58850394162449 18.116441032537026 21.55392635292022 18.036420377124767 21.532301043502954 17.963673085948322 21.523308511796596 17.898679962564 21.526655452601315 17.84193528181884 21.542000409659913 17.78332025394635 21.5775111546184 17.425504232290876 21.86755164600995 17.021742682098672 22.183166953285102 16.612380526759587 22.49148340982957 16.239613324407664 22.76203914318357 16.190141893198877 22.80946605531323 16.160633198787576 22.86030564081646 16.140578844092673 22.922217925201476 16.13043657827549 22.99481385101067 16.13061415352084 23.07770491064337 16.141549210228046 23.170492267189456 16.16366112595356 23.27275328313858 16.197321127196464 23.384051849689676 16.242942503898917 23.503957395798988 16.300880065636246 23.63199599091754 16.395638700587412 23.81248883150185 16.559474764036924 24.15986610956328 16.659372180258433 24.409510619881985 16.764168247422866 24.706836142343256 16.872208628490323 25.059641341509593 16.9780918036725 25.465453469117108 17.07704810819292 25.9221468492921 17.165694440116766 26.433640923486955 17.239303944315857 26.99770153848464 17.293793717935905 27.61608770090326 17.322235581695782 28.210426362686945 A33.10422816311423 33.10422816311423 0 0 1 15.769828090829254 29.10670924543073 L15.269336643153274 28.784908537991857 14.761043403960002 28.42852592858112 14.309357334197276 28.082747920485886 13.910713638021258 27.7502309079901 13.564683721309738 27.436185544323294 13.266181697228905 27.141581960978414 13.014663622697356 26.871613646756273 12.809570200634633 26.632194829144538 12.643320420894062 26.42085887376493 12.424400905120127 26.1052840417309 12.315468837448485 25.932974236343103 12.233552942279612 25.81877953848597 12.152522381645529 25.71931749425137 12.07296499622894 25.63451779480805 11.995460316462948 25.56423780608885 11.920571636897638 25.508374090915545 11.84887466113178 25.46677477642564 11.780933612261178 25.43926027337066 11.717288823829978 25.425671711800437 11.658506104060658 25.425807198041525 11.592697477728926 25.444937258165076 11.172005738328872 25.632485258422495 10.700314776887017 25.832845056021863 10.225103127867404 26.024705161922125 9.795012683368466 26.189562680861066 9.734951962190857 26.222569411562937 9.69329049918555 26.264039268088585 9.657895401731542 26.31865149360834 9.629309517045364 26.386148761676825 9.608027256659287 26.466261336799953 9.594574575325867 26.558717241776012 9.589465947294702 26.663216783017294 9.593172823092111 26.77943479225779 9.606205850133364 26.90706233711446 9.629030410402816 27.045733467305663 9.673845238518176 27.244601502899602 9.742190868083421 27.622546080740495 9.774071608615548 27.88953951452328 9.798343328575164 28.20385713351751 9.8113896181749 28.572603695301723 9.808633004294453 28.991992692272213 9.786016509943318 29.458736399121342 9.739257883495647 29.975745094360335 9.664369574908239 30.539637351566373 9.556952538454688 31.1510555076425 9.430599104297787 31.732503866640712 A33.10422816311423 33.10422816311423 0 0 1 7.6991135360917085 32.19645402634768 L7.298964072757322 31.7560816935449 6.900229112351244 31.28028655627471 6.553427806065082 30.829385690830637 6.254429300095834 30.40502234000006 6.0014709880186405 30.01211867998776 5.789389191884505 29.650295461483868 5.616314329210895 29.324428426620702 5.480175445792349 29.040085523734852 5.374288260093241 28.792922057169257 5.244505022613937 28.431439636753836 5.183881784431102 28.2368074518711 5.1343128683590535 28.10530245021929 5.081786028436653 27.98825724063015 5.026887272425638 27.885756054351926 4.970213300151521 27.797811110968734 4.912334983879735 27.7244682891963 4.85384771817387 27.66572989417012 4.795342981811747 27.621568487679852 4.737383815487268 27.591970461749543 4.6805690019030255 27.57688724400969 4.612051526242669 27.5783329373148 4.157153515912174 27.650607360158276 3.6496781027367637 27.72205745898568 3.1410018485929285 27.78438626508845 2.6828981149815094 27.83231080213658 2.616341142728298 27.848647997259526 2.56536607098398 27.877922022617543 2.517042348169186 27.921512456353845 2.4719609254149733 27.97931123940726 2.4306691802721776 28.05118579041847 2.3937455388993993 28.137009526690985 2.361764511669471 28.23662612218249 2.3352656445616957 28.349843508841982 2.3148221426869835 28.476495446178518 2.300978245425563 28.61634890308472 2.2927952102290563 28.820039605707528 2.2609927642016565 29.202795184930977 2.2226842092625576 29.468942380893054 2.1647775044130215 29.77883187012021 2.081940619468823 30.138390325719218 1.9707320752061865 30.54277552498223 1.828084058698003 30.98776174621417 1.6491069969989365 31.475051774314036 1.430824390096482 32.000347348275845 1.1688208370885973 32.563130361089165 0.8962828827437863 33.09206367252503 A33.10422816311423 33.10422816311423 0 0 1 -0.8962828827437783 33.09206367252503 L-1.1688208370885902 32.563130361089165 -1.430824390096475 32.000347348275845 -1.6491069969989294 31.475051774314036 -1.8280840586979958 30.98776174621417 -1.9707320752061799 30.542775524982225 -2.081940619468816 30.138390325719218 -2.1647775044130144 29.77883187012021 -2.2226842092625505 29.468942380893054 -2.2609927642016503 29.202795184930974 -2.292795210229049 28.820039605707528 -2.300978245425557 28.61634890308472 -2.3148221426869773 28.476495446178518 -2.3352656445616895 28.349843508841982 -2.361764511669465 28.23662612218249 -2.393745538899393 28.137009526690985 -2.4306691802721714 28.051185790418465 -2.471960925414967 27.97931123940726 -2.5170423481691797 27.92151245635384 -2.565366070983974 27.877922022617543 -2.6163411427282917 27.848647997259526 -2.682898114981503 27.83231080213658 -3.1410018485929223 27.78438626508845 -3.6496781027367575 27.72205745898568 -4.157153515912168 27.650607360158276 -4.612051526242663 27.5783329373148 -4.680569001903019 27.57688724400969 -4.737383815487263 27.591970461749543 -4.795342981811741 27.621568487679856 -4.8538477181738635 27.66572989417012 -4.912334983879729 27.724468289196302 -4.970213300151514 27.797811110968734 -5.026887272425632 27.885756054351926 -5.081786028436646 27.98825724063015 -5.134312868359046 28.10530245021929 -5.183881784431095 28.2368074518711 -5.2445050226139305 28.431439636753836 -5.374288260093234 28.79292205716926 -5.480175445792343 29.040085523734852 -5.616314329210889 29.324428426620702 -5.7893891918844975 29.650295461483868 -6.001470988018633 30.012118679987765 -6.254429300095827 30.40502234000006 -6.553427806065075 30.829385690830637 -6.900229112351237 31.28028655627471 -7.298964072757315 31.7560816935449 -7.699113536091701 32.19645402634768 A33.10422816311423 33.10422816311423 0 0 1 -9.430599104297775 31.73250386664072 L-9.556952538454675 31.151055507642507 -9.664369574908225 30.53963735156638 -9.739257883495632 29.97574509436034 -9.786016509943305 29.458736399121346 -9.808633004294439 28.99199269227222 -9.811389618174887 28.57260369530173 -9.798343328575152 28.203857133517513 -9.774071608615538 27.889539514523285 -9.742190868083409 27.6225460807405 -9.673845238518162 27.244601502899606 -9.629030410402805 27.04573346730567 -9.606205850133353 26.907062337114464 -9.5931728230921 26.779434792257792 -9.58946594729469 26.6632167830173 -9.594574575325856 26.558717241776016 -9.608027256659273 26.46626133679996 -9.629309517045353 26.38614876167683 -9.657895401731531 26.318651493608346 -9.69329049918554 26.264039268088588 -9.734951962190847 26.222569411562944 -9.795012683368455 26.189562680861073 -10.225103127867394 26.02470516192213 -10.700314776887007 25.832845056021867 -11.172005738328862 25.632485258422502 -11.592697477728915 25.444937258165083 -11.658506104060647 25.425807198041532 -11.717288823829968 25.425671711800447 -11.780933612261167 25.439260273370667 -11.84887466113177 25.466774776425645 -11.920571636897627 25.508374090915552 -11.995460316462937 25.564237806088855 -12.072964996228931 25.63451779480806 -12.152522381645518 25.719317494251374 -12.233552942279601 25.818779538485973 -12.315468837448474 25.93297423634311 -12.424400905120116 26.10528404173091 -12.64332042089405 26.420858873764942 -12.809570200634623 26.632194829144545 -13.014663622697347 26.871613646756277 -13.266181697228893 27.14158196097842 -13.564683721309727 27.4361855443233 -13.910713638021246 27.75023090799011 -14.309357334197266 28.082747920485893 -14.761043403959992 28.428525928581127 -15.269336643153261 28.784908537991864 -15.769828090829241 29.106709245430736 A33.10422816311423 33.10422816311423 0 0 1 -17.322235581695775 28.21042636268695 L-17.2937937179359 27.616087700903265 -17.23930394431585 26.99770153848464 -17.16569444011676 26.433640923486955 -17.077048108192912 25.922146849292105 -16.97809180367249 25.46545346911711 -16.872208628490316 25.059641341509597 -16.76416824742286 24.70683614234326 -16.659372180258426 24.40951061988199 -16.559474764036917 24.159866109563282 -16.395638700587405 23.812488831501852 -16.30088006563624 23.631995990917545 -16.242942503898913 23.503957395798988 -16.197321127196457 23.38405184968968 -16.163661125953553 23.272753283138584 -16.14154921022804 23.17049226718946 -16.13061415352083 23.077704910643373 -16.130436578275482 22.99481385101067 -16.14057884409267 22.92221792520148 -16.16063319878757 22.860305640816463 -16.190141893198874 22.809466055313234 -16.239613324407657 22.76203914318357 -16.612380526759583 22.491483409829574 -17.021742682098665 22.183166953285106 -17.425504232290873 21.867551646009954 -17.783320253946343 21.577511154618406 -17.841935281818838 21.542000409659916 -17.898679962563993 21.526655452601318 -17.96367308594832 21.5233085117966 -18.03642037712476 21.53230104350296 -18.11644103253702 21.553926352920225 -18.20323653564287 21.588503941624495 -18.296290107057224 21.636329510591665 -18.39508441753804 21.69764876382114 -18.49909660008593 21.77274946875541 -18.607777041468285 21.861851682874565 -18.757594398235668 22.00009648028567 -19.05073118908584 22.24825782064726 -19.266013915119306 22.409364068730934 -19.52608509804554 22.58754280430662 -19.838905843308975 22.783214503417227 -20.203485675693315 22.990521704253577 -20.619005830056743 23.204307099025513 -21.090127807334994 23.42231728829526 -21.615916981366475 23.639408239215136 -22.19912915509022 23.852091434885182 -22.765854922049893 24.033390330549008 A33.10422816311423 33.10422816311423 0 0 1 -24.033390330549 22.765854922049904 L-23.852091434885175 22.199129155090233 -23.639408239215125 21.61591698136649 -23.42231728829525 21.09012780733501 -23.204307099025502 20.619005830056757 -22.99052170425357 20.20348567569333 -22.78321450341722 19.838905843308986 -22.58754280430661 19.526085098045552 -22.409364068730927 19.26601391511932 -22.24825782064725 19.050731189085855 -22.000096480285663 18.757594398235682 -21.86185168287456 18.6077770414683 -21.772749468755407 18.49909660008594 -21.69764876382113 18.395084417538055 -21.636329510591658 18.29629010705724 -21.588503941624488 18.203236535642883 -21.553926352920218 18.116441032537033 -21.53230104350295 18.036420377124774 -21.523308511796593 17.96367308594833 -21.526655452601315 17.898679962564007 -21.54200040965991 17.84193528181885 -21.577511154618396 17.783320253946354 -21.86755164600995 17.425504232290884 -22.1831669532851 17.02174268209868 -22.49148340982957 16.612380526759594 -22.762039143183568 16.239613324407667 -22.809466055313226 16.190141893198884 -22.86030564081646 16.160633198787583 -22.922217925201473 16.14057884409268 -22.994813851010665 16.130436578275496 -23.077704910643366 16.130614153520845 -23.170492267189452 16.141549210228053 -23.272753283138577 16.163661125953567 -23.384051849689673 16.19732112719647 -23.503957395798984 16.242942503898924 -23.631995990917538 16.300880065636253 -23.812488831501845 16.39563870058742 -24.15986610956328 16.55947476403693 -24.40951061988198 16.65937218025844 -24.706836142343253 16.76416824742287 -25.05964134150959 16.872208628490327 -25.465453469117104 16.978091803672505 -25.9221468492921 17.077048108192926 -26.43364092348695 17.165694440116773 -26.997701538484637 17.239303944315864 -27.616087700903257 17.293793717935912 -28.210426362686942 17.322235581695793 A33.10422816311423 33.10422816311423 0 0 1 -29.10670924543073 15.769828090829256 L-28.784908537991857 15.269336643153276 -28.42852592858112 14.761043403960004 -28.082747920485886 14.30935733419728 -27.7502309079901 13.91071363802126 -27.436185544323294 13.564683721309741 -27.141581960978414 13.266181697228905 -26.871613646756273 13.014663622697357 -26.632194829144538 12.809570200634635 -26.42085887376493 12.643320420894062 -26.1052840417309 12.42440090512013 -25.932974236343103 12.315468837448487 -25.81877953848597 12.233552942279614 -25.71931749425137 12.15252238164553 -25.63451779480805 12.072964996228944 -25.56423780608885 11.99546031646295 -25.508374090915545 11.920571636897638 -25.46677477642564 11.848874661131783 -25.43926027337066 11.78093361226118 -25.425671711800437 11.71728882382998 -25.425807198041525 11.65850610406066 -25.444937258165076 11.592697477728928 -25.632485258422495 11.172005738328874 -25.832845056021863 10.70031477688702 -26.024705161922125 10.225103127867406 -26.189562680861066 9.795012683368467 -26.222569411562937 9.73495196219086 -26.264039268088585 9.693290499185553 -26.31865149360834 9.657895401731544 -26.386148761676825 9.629309517045366 -26.466261336799953 9.608027256659287 -26.558717241776012 9.594574575325868 -26.663216783017294 9.589465947294702 -26.77943479225779 9.593172823092113 -26.90706233711446 9.606205850133366 -27.045733467305663 9.629030410402818 -27.244601502899602 9.673845238518176 -27.622546080740495 9.742190868083421 -27.88953951452328 9.77407160861555 -28.20385713351751 9.798343328575166 -28.572603695301723 9.8113896181749 -28.991992692272213 9.808633004294453 -29.458736399121342 9.78601650994332 -29.975745094360335 9.739257883495647 -30.539637351566373 9.66436957490824 -31.1510555076425 9.55695253845469 -31.732503866640712 9.430599104297789 A33.10422816311423 33.10422816311423 0 0 1 -32.19645402634768 7.69911353609171 L-31.7560816935449 7.2989640727573235 -31.28028655627471 6.900229112351246 -30.829385690830637 6.553427806065084 -30.40502234000006 6.254429300095836 -30.01211867998776 6.001470988018642 -29.650295461483868 5.789389191884506 -29.324428426620702 5.616314329210897 -29.040085523734852 5.480175445792351 -28.792922057169257 5.374288260093242 -28.431439636753836 5.2445050226139385 -28.2368074518711 5.183881784431103 -28.10530245021929 5.134312868359054 -27.98825724063015 5.081786028436655 -27.885756054351926 5.02688727242564 -27.797811110968734 4.9702133001515225 -27.7244682891963 4.912334983879736 -27.66572989417012 4.8538477181738715 -27.621568487679852 4.795342981811748 -27.591970461749543 4.73738381548727 -27.57688724400969 4.680569001903027 -27.5783329373148 4.612051526242671 -27.650607360158276 4.157153515912176 -27.72205745898568 3.649678102736765 -27.78438626508845 3.14100184859293 -27.83231080213658 2.6828981149815103 -27.848647997259526 2.6163411427282997 -27.877922022617543 2.565366070983982 -27.921512456353845 2.5170423481691873 -27.97931123940726 2.471960925414975 -28.05118579041847 2.4306691802721794 -28.137009526690985 2.393745538899401 -28.23662612218249 2.361764511669472 -28.349843508841982 2.3352656445616975 -28.476495446178518 2.3148221426869853 -28.61634890308472 2.300978245425565 -28.820039605707528 2.292795210229058 -29.202795184930977 2.2609927642016583 -29.468942380893054 2.2226842092625594 -29.77883187012021 2.1647775044130224 -30.138390325719218 2.0819406194688246 -30.54277552498223 1.9707320752061883 -30.98776174621417 1.8280840586980047 -31.475051774314036 1.6491069969989383 -32.000347348275845 1.4308243900964839 -32.563130361089165 1.168820837088599 -33.09206367252503 0.8962828827437881 A33.10422816311423 33.10422816311423 0 0 1 -33.09206367252503 -0.896282882743769 L-32.56313036108917 -1.16882083708858 -32.000347348275845 -1.4308243900964657 -31.475051774314036 -1.6491069969989205 -30.987761746214172 -1.828084058697987 -30.54277552498223 -1.970732075206171 -30.13839032571922 -2.0819406194688073 -29.778831870120214 -2.1647775044130064 -29.468942380893058 -2.2226842092625425 -29.202795184930977 -2.260992764201642 -28.82003960570753 -2.292795210229041 -28.616348903084724 -2.3009782454255485 -28.47649544617852 -2.3148221426869693 -28.349843508841985 -2.335265644561681 -28.236626122182493 -2.3617645116694566 -28.137009526690985 -2.3937455388993847 -28.05118579041847 -2.4306691802721634 -27.979311239407263 -2.471960925414959 -27.921512456353845 -2.5170423481691717 -27.877922022617547 -2.5653660709839663 -27.84864799725953 -2.6163411427282837 -27.832310802136583 -2.6828981149814948 -27.784386265088454 -3.1410018485929143 -27.722057458985685 -3.6496781027367495 -27.65060736015828 -4.15715351591216 -27.578332937314805 -4.612051526242655 -27.576887244009693 -4.680569001903012 -27.591970461749547 -4.737383815487255 -27.62156848767986 -4.795342981811733 -27.665729894170124 -4.853847718173856 -27.724468289196306 -4.912334983879721 -27.79781111096874 -4.9702133001515065 -27.88575605435193 -5.026887272425624 -27.988257240630155 -5.081786028436639 -28.105302450219295 -5.134312868359039 -28.236807451871105 -5.183881784431087 -28.43143963675384 -5.2445050226139225 -28.792922057169264 -5.374288260093227 -29.040085523734856 -5.480175445792335 -29.324428426620706 -5.61631432921088 -29.65029546148387 -5.7893891918844895 -30.01211867998777 -6.001470988018625 -30.405022340000063 -6.254429300095818 -30.829385690830645 -6.553427806065066 -31.280286556274714 -6.900229112351229 -31.756081693544907 -7.298964072757306 -32.19645402634768 -7.6991135360916925 A33.10422816311423 33.10422816311423 0 0 1 -31.73250386664072 -9.430599104297773 L-31.151055507642507 -9.556952538454674 -30.53963735156638 -9.664369574908225 -29.97574509436034 -9.73925788349563 -29.458736399121346 -9.786016509943304 -28.99199269227222 -9.808633004294437 -28.57260369530173 -9.811389618174886 -28.203857133517513 -9.79834332857515 -27.889539514523285 -9.774071608615536 -27.6225460807405 -9.742190868083407 -27.244601502899606 -9.67384523851816 -27.04573346730567 -9.629030410402803 -26.907062337114464 -9.606205850133351 -26.779434792257792 -9.593172823092099 -26.6632167830173 -9.589465947294688 -26.558717241776016 -9.594574575325854 -26.46626133679996 -9.608027256659273 -26.38614876167683 -9.629309517045352 -26.318651493608346 -9.65789540173153 -26.264039268088588 -9.693290499185538 -26.222569411562944 -9.734951962190845 -26.189562680861073 -9.795012683368453 -26.02470516192213 -10.225103127867392 -25.832845056021867 -10.700314776887005 -25.632485258422502 -11.17200573832886 -25.444937258165083 -11.592697477728914 -25.425807198041532 -11.658506104060645 -25.425671711800447 -11.717288823829966 -25.439260273370667 -11.780933612261165 -25.466774776425645 -11.848874661131768 -25.508374090915552 -11.920571636897627 -25.564237806088855 -11.995460316462935 -25.63451779480806 -12.07296499622893 -25.719317494251374 -12.152522381645516 -25.818779538485973 -12.2335529422796 -25.93297423634311 -12.315468837448472 -26.10528404173091 -12.424400905120114 -26.420858873764942 -12.643320420894048 -26.632194829144545 -12.80957020063462 -26.871613646756277 -13.014663622697345 -27.14158196097842 -13.266181697228891 -27.4361855443233 -13.564683721309725 -27.75023090799011 -13.910713638021244 -28.082747920485893 -14.309357334197264 -28.428525928581127 -14.761043403959988 -28.784908537991864 -15.26933664315326 -29.106709245430736 -15.76982809082924 A33.10422816311423 33.10422816311423 0 0 1 -28.21042636268696 -17.322235581695757 L-27.616087700903275 -17.29379371793588 -26.997701538484655 -17.23930394431583 -26.43364092348697 -17.16569444011674 -25.92214684929212 -17.077048108192894 -25.465453469117126 -16.978091803672474 -25.059641341509607 -16.8722086284903 -24.706836142343267 -16.76416824742284 -24.409510619882 -16.65937218025841 -24.159866109563293 -16.559474764036903 -23.812488831501863 -16.395638700587387 -23.631995990917556 -16.300880065636225 -23.503957395799002 -16.242942503898895 -23.38405184968969 -16.197321127196442 -23.272753283138595 -16.163661125953535 -23.170492267189466 -16.14154921022802 -23.077704910643387 -16.130614153520817 -22.994813851010683 -16.130436578275468 -22.922217925201494 -16.14057884409265 -22.860305640816478 -16.160633198787554 -22.809466055313244 -16.190141893198856 -22.762039143183582 -16.239613324407642 -22.491483409829588 -16.612380526759562 -22.183166953285117 -17.02174268209865 -21.867551646009968 -17.42550423229086 -21.577511154618417 -17.78332025394633 -21.542000409659927 -17.84193528181882 -21.526655452601332 -17.89867996256398 -21.523308511796614 -17.9636730859483 -21.532301043502976 -18.036420377124745 -21.55392635292024 -18.116441032537004 -21.58850394162451 -18.20323653564286 -21.636329510591676 -18.296290107057214 -21.697648763821157 -18.395084417538026 -21.772749468755425 -18.499096600085913 -21.861851682874583 -18.60777704146827 -22.00009648028568 -18.75759439823565 -22.24825782064727 -19.050731189085827 -22.40936406873095 -19.266013915119295 -22.587542804306633 -19.526085098045524 -22.783214503417238 -19.838905843308957 -22.99052170425359 -20.203485675693297 -23.204307099025527 -20.619005830056725 -23.422317288295275 -21.090127807334976 -23.63940823921515 -21.61591698136646 -23.8520914348852 -22.1991291550902 -24.033390330549025 -22.765854922049876 A33.10422816311423 33.10422816311423 0 0 1 -22.765854922049904 -24.033390330549004 L-22.19912915509023 -23.85209143488518 -21.615916981366485 -23.63940823921513 -21.090127807335005 -23.422317288295254 -20.619005830056754 -23.20430709902551 -20.203485675693326 -22.990521704253574 -19.838905843308986 -22.783214503417224 -19.52608509804555 -22.587542804306615 -19.266013915119316 -22.40936406873093 -19.05073118908585 -22.248257820647254 -18.757594398235675 -22.000096480285666 -18.607777041468296 -21.861851682874562 -18.499096600085938 -21.77274946875541 -18.39508441753805 -21.697648763821135 -18.296290107057235 -21.63632951059166 -18.20323653564288 -21.58850394162449 -18.11644103253703 -21.55392635292022 -18.03642037712477 -21.532301043502954 -17.963673085948326 -21.523308511796596 -17.898679962564003 -21.526655452601315 -17.841935281818845 -21.542000409659913 -17.783320253946354 -21.5775111546184 -17.42550423229088 -21.86755164600995 -17.021742682098676 -22.183166953285102 -16.61238052675959 -22.49148340982957 -16.239613324407667 -22.76203914318357 -16.19014189319888 -22.80946605531323 -16.16063319878758 -22.86030564081646 -16.140578844092676 -22.922217925201476 -16.130436578275493 -22.99481385101067 -16.130614153520842 -23.07770491064337 -16.14154921022805 -23.170492267189456 -16.163661125953563 -23.27275328313858 -16.197321127196467 -23.384051849689676 -16.24294250389892 -23.503957395798988 -16.30088006563625 -23.63199599091754 -16.39563870058742 -23.81248883150185 -16.559474764036928 -24.159866109563282 -16.659372180258437 -24.409510619881985 -16.764168247422866 -24.706836142343256 -16.872208628490327 -25.059641341509593 -16.978091803672502 -25.465453469117108 -17.077048108192923 -25.9221468492921 -17.16569444011677 -26.433640923486955 -17.23930394431586 -26.99770153848464 -17.29379371793591 -27.61608770090326 -17.322235581695786 -28.210426362686945 A33.10422816311423 33.10422816311423 0 0 1 -15.769828090829265 -29.10670924543072 L-15.269336643153286 -28.78490853799185 -14.761043403960013 -28.428525928581113 -14.309357334197287 -28.082747920485883 -13.910713638021269 -27.750230907990098 -13.564683721309748 -27.43618554432329 -13.266181697228914 -27.141581960978407 -13.014663622697366 -26.87161364675627 -12.809570200634642 -26.632194829144535 -12.64332042089407 -26.420858873764928 -12.424400905120136 -26.105284041730897 -12.315468837448496 -25.9329742363431 -12.233552942279623 -25.818779538485966 -12.152522381645536 -25.719317494251367 -12.072964996228949 -25.634517794808044 -11.995460316462957 -25.564237806088848 -11.920571636897646 -25.508374090915545 -11.848874661131791 -25.466774776425638 -11.780933612261187 -25.439260273370657 -11.717288823829987 -25.425671711800433 -11.658506104060667 -25.42580719804152 -11.592697477728935 -25.444937258165073 -11.172005738328883 -25.63248525842249 -10.700314776887028 -25.83284505602186 -10.225103127867415 -26.02470516192212 -9.795012683368475 -26.189562680861062 -9.734951962190866 -26.222569411562933 -9.69329049918556 -26.26403926808858 -9.657895401731551 -26.318651493608343 -9.629309517045375 -26.38614876167682 -9.608027256659296 -26.466261336799953 -9.594574575325876 -26.55871724177601 -9.58946594729471 -26.663216783017294 -9.593172823092122 -26.779434792257785 -9.606205850133374 -26.907062337114457 -9.629030410402827 -27.04573346730566 -9.673845238518185 -27.2446015028996 -9.74219086808343 -27.62254608074049 -9.77407160861556 -27.889539514523275 -9.798343328575175 -28.203857133517506 -9.811389618174909 -28.572603695301723 -9.808633004294464 -28.99199269227221 -9.786016509943329 -29.45873639912134 -9.739257883495657 -29.97574509436033 -9.66436957490825 -30.539637351566373 -9.5569525384547 -31.1510555076425 -9.430599104297798 -31.732503866640712 A33.10422816311423 33.10422816311423 0 0 1 -7.699113536091707 -32.19645402634768 L-7.29896407275732 -31.7560816935449 -6.9002291123512425 -31.28028655627471 -6.55342780606508 -30.829385690830637 -6.254429300095833 -30.40502234000006 -6.001470988018638 -30.012118679987765 -5.789389191884502 -29.650295461483868 -5.616314329210892 -29.324428426620702 -5.480175445792346 -29.040085523734852 -5.3742882600932385 -28.792922057169257 -5.244505022613934 -28.431439636753836 -5.183881784431099 -28.2368074518711 -5.134312868359051 -28.10530245021929 -5.0817860284366505 -27.98825724063015 -5.026887272425636 -27.885756054351926 -4.970213300151518 -27.797811110968734 -4.912334983879733 -27.7244682891963 -4.853847718173868 -27.66572989417012 -4.795342981811745 -27.621568487679856 -4.7373838154872665 -27.591970461749543 -4.680569001903024 -27.57688724400969 -4.6120515262426665 -27.5783329373148 -4.157153515912173 -27.650607360158276 -3.6496781027367615 -27.72205745898568 -3.1410018485929263 -27.78438626508845 -2.6828981149815068 -27.83231080213658 -2.616341142728295 -27.848647997259526 -2.565366070983978 -27.877922022617543 -2.5170423481691837 -27.92151245635384 -2.4719609254149706 -27.97931123940726 -2.430669180272176 -28.05118579041847 -2.393745538899397 -28.137009526690985 -2.3617645116694685 -28.23662612218249 -2.3352656445616935 -28.349843508841982 -2.314822142686981 -28.476495446178518 -2.3009782454255605 -28.61634890308472 -2.2927952102290536 -28.820039605707528 -2.260992764201654 -29.202795184930977 -2.222684209262555 -29.468942380893054 -2.164777504413019 -29.77883187012021 -2.0819406194688206 -30.138390325719218 -1.9707320752061843 -30.542775524982225 -1.8280840586980003 -30.98776174621417 -1.6491069969989338 -31.475051774314036 -1.4308243900964794 -32.000347348275845 -1.1688208370885946 -32.563130361089165 -0.8962828827437836 -33.09206367252503 A33.10422816311423 33.10422816311423 0 0 1 0.8962828827437743 -33.09206367252503 L1.1688208370885853 -32.56313036108917 1.430824390096471 -32.00034734827585 1.6491069969989258 -31.47505177431404 1.8280840586979923 -30.987761746214172 1.9707320752061763 -30.54277552498223 2.0819406194688126 -30.13839032571922 2.164777504413011 -29.778831870120214 2.222684209262548 -29.468942380893058 2.2609927642016467 -29.202795184930977 2.292795210229046 -28.82003960570753 2.3009782454255534 -28.616348903084724 2.3148221426869737 -28.47649544617852 2.3352656445616864 -28.349843508841985 2.3617645116694614 -28.236626122182493 2.39374553889939 -28.137009526690985 2.4306691802721683 -28.05118579041847 2.4719609254149635 -27.979311239407263 2.5170423481691766 -27.921512456353845 2.5653660709839707 -27.877922022617547 2.616341142728288 -27.84864799725953 2.6828981149814997 -27.832310802136583 3.141001848592919 -27.784386265088454 3.6496781027367544 -27.722057458985685 4.1571535159121655 -27.65060736015828 4.61205152624266 -27.578332937314805 4.680569001903017 -27.576887244009693 4.737383815487259 -27.591970461749547 4.7953429818117375 -27.62156848767986 4.853847718173861 -27.665729894170124 4.912334983879726 -27.724468289196306 4.970213300151511 -27.79781111096874 5.026887272425629 -27.88575605435193 5.081786028436643 -27.988257240630155 5.134312868359044 -28.105302450219295 5.183881784431092 -28.236807451871105 5.244505022613927 -28.43143963675384 5.374288260093231 -28.792922057169264 5.480175445792339 -29.040085523734856 5.616314329210885 -29.324428426620706 5.789389191884495 -29.65029546148387 6.001470988018631 -30.01211867998777 6.254429300095824 -30.405022340000063 6.553427806065072 -30.82938569083064 6.9002291123512345 -31.280286556274714 7.298964072757311 -31.756081693544907 7.699113536091698 -32.19645402634768 A33.10422816311423 33.10422816311423 0 0 1 9.430599104297764 -31.73250386664072 L9.556952538454663 -31.15105550764251 9.664369574908214 -30.539637351566384 9.739257883495622 -29.975745094360345 9.786016509943295 -29.45873639912135 9.80863300429443 -28.991992692272223 9.811389618174875 -28.572603695301733 9.798343328575141 -28.203857133517516 9.774071608615527 -27.88953951452329 9.742190868083398 -27.622546080740502 9.673845238518153 -27.24460150289961 9.629030410402796 -27.04573346730567 9.606205850133344 -26.907062337114468 9.593172823092091 -26.779434792257796 9.589465947294679 -26.663216783017305 9.594574575325845 -26.558717241776016 9.608027256659264 -26.466261336799963 9.629309517045344 -26.386148761676832 9.657895401731523 -26.31865149360835 9.693290499185531 -26.26403926808859 9.734951962190836 -26.222569411562947 9.795012683368444 -26.189562680861076 10.225103127867385 -26.024705161922135 10.700314776886998 -25.83284505602187 11.172005738328853 -25.632485258422506 11.592697477728905 -25.444937258165087 11.658506104060637 -25.425807198041536 11.717288823829959 -25.42567171180045 11.780933612261158 -25.43926027337067 11.848874661131761 -25.46677477642565 11.920571636897618 -25.508374090915556 11.995460316462927 -25.56423780608886 12.07296499622892 -25.634517794808062 12.15252238164551 -25.719317494251378 12.233552942279593 -25.818779538485977 12.315468837448465 -25.93297423634311 12.424400905120107 -26.105284041730915 12.643320420894042 -26.420858873764946 12.809570200634612 -26.63219482914455 13.014663622697336 -26.87161364675628 13.266181697228884 -27.141581960978424 13.564683721309718 -27.436185544323305 13.910713638021235 -27.750230907990115 14.309357334197255 -28.082747920485897 14.761043403959981 -28.42852592858113 15.269336643153252 -28.784908537991868 15.76982809082923 -29.106709245430743 A33.10422816311423 33.10422816311423 0 0 1 17.32223558169578 -28.21042636268695 L17.293793717935902 -27.616087700903265 17.23930394431585 -26.99770153848464 17.165694440116763 -26.43364092348696 17.077048108192916 -25.922146849292105 16.978091803672495 -25.46545346911711 16.87220862849032 -25.059641341509597 16.764168247422862 -24.70683614234326 16.65937218025843 -24.40951061988199 16.55947476403692 -24.159866109563282 16.39563870058741 -23.812488831501852 16.300880065636242 -23.631995990917545 16.242942503898913 -23.503957395798988 16.19732112719646 -23.38405184968968 16.163661125953553 -23.272753283138584 16.141549210228042 -23.17049226718946 16.130614153520835 -23.077704910643373 16.130436578275486 -22.99481385101067 16.14057884409267 -22.92221792520148 16.160633198787572 -22.860305640816463 16.190141893198877 -22.809466055313234 16.23961332440766 -22.762039143183575 16.612380526759583 -22.491483409829574 17.02174268209867 -22.183166953285106 17.425504232290873 -21.867551646009954 17.783320253946346 -21.577511154618403 17.84193528181884 -21.542000409659916 17.898679962563996 -21.526655452601318 17.96367308594832 -21.5233085117966 18.036420377124763 -21.53230104350296 18.116441032537022 -21.553926352920225 18.203236535642873 -21.588503941624495 18.29629010705723 -21.636329510591665 18.395084417538044 -21.69764876382114 18.49909660008593 -21.77274946875541 18.60777704146829 -21.861851682874565 18.75759439823567 -22.00009648028567 19.050731189085845 -22.24825782064726 19.26601391511931 -22.409364068730934 19.526085098045545 -22.58754280430662 19.83890584330898 -22.783214503417227 20.20348567569332 -22.990521704253577 20.619005830056746 -23.204307099025513 21.090127807334998 -23.422317288295257 21.61591698136648 -23.639408239215136 22.199129155090223 -23.852091434885182 22.765854922049897 -24.033390330549008 A33.10422816311423 33.10422816311423 0 0 1 24.033390330549 -22.765854922049904 L23.852091434885175 -22.199129155090226 23.639408239215125 -21.615916981366485 23.42231728829525 -21.090127807335005 23.204307099025506 -20.619005830056754 22.99052170425357 -20.203485675693326 22.78321450341722 -19.838905843308986 22.58754280430661 -19.52608509804555 22.409364068730927 -19.266013915119316 22.24825782064725 -19.05073118908585 22.000096480285663 -18.757594398235675 21.86185168287456 -18.607777041468296 21.772749468755407 -18.499096600085938 21.69764876382113 -18.39508441753805 21.636329510591658 -18.296290107057235 21.588503941624488 -18.20323653564288 21.553926352920218 -18.11644103253703 21.53230104350295 -18.03642037712477 21.523308511796593 -17.963673085948326 21.526655452601315 -17.898679962564003 21.54200040965991 -17.841935281818845 21.577511154618396 -17.783320253946354 21.86755164600995 -17.42550423229088 22.1831669532851 -17.021742682098676 22.49148340982957 -16.61238052675959 22.762039143183568 -16.239613324407667 22.809466055313226 -16.19014189319888 22.86030564081646 -16.16063319878758 22.922217925201473 -16.140578844092676 22.994813851010665 -16.130436578275493 23.077704910643366 -16.130614153520842 23.170492267189452 -16.14154921022805 23.272753283138577 -16.163661125953563 23.384051849689673 -16.197321127196467 23.503957395798984 -16.24294250389892 23.631995990917538 -16.30088006563625 23.812488831501845 -16.39563870058742 24.15986610956328 -16.559474764036928 24.40951061988198 -16.659372180258437 24.706836142343253 -16.764168247422866 25.05964134150959 -16.872208628490327 25.465453469117104 -16.978091803672502 25.922146849292098 -17.077048108192923 26.43364092348695 -17.16569444011677 26.997701538484637 -17.23930394431586 27.616087700903257 -17.293793717935912 28.210426362686942 -17.322235581695786 A33.10422816311423 33.10422816311423 0 0 1 29.10670924543072 -15.769828090829265 L28.78490853799185 -15.269336643153288 28.428525928581113 -14.761043403960015 28.082747920485883 -14.309357334197289 27.750230907990098 -13.91071363802127 27.436185544323287 -13.56468372130975 27.141581960978407 -13.266181697228916 26.87161364675627 -13.014663622697368 26.632194829144535 -12.809570200634642 26.420858873764928 -12.643320420894073 26.105284041730897 -12.424400905120137 25.9329742363431 -12.315468837448497 25.818779538485966 -12.233552942279625 25.719317494251367 -12.15252238164554 25.634517794808044 -12.07296499622895 25.564237806088848 -11.995460316462959 25.508374090915545 -11.920571636897648 25.466774776425634 -11.848874661131791 25.439260273370657 -11.780933612261189 25.425671711800433 -11.717288823829989 25.42580719804152 -11.658506104060669 25.444937258165073 -11.592697477728937 25.63248525842249 -11.172005738328883 25.83284505602186 -10.70031477688703 26.02470516192212 -10.225103127867415 26.189562680861062 -9.795012683368476 26.222569411562933 -9.734951962190868 26.26403926808858 -9.693290499185562 26.318651493608343 -9.657895401731553 26.386148761676825 -9.629309517045378 26.466261336799953 -9.608027256659298 26.55871724177601 -9.594574575325877 26.663216783017294 -9.589465947294713 26.779434792257785 -9.593172823092122 26.907062337114457 -9.606205850133376 27.04573346730566 -9.629030410402828 27.2446015028996 -9.673845238518187 27.62254608074049 -9.742190868083432 27.889539514523275 -9.77407160861556 28.203857133517506 -9.798343328575177 28.572603695301723 -9.81138961817491 28.991992692272213 -9.808633004294466 29.45873639912134 -9.78601650994333 29.97574509436033 -9.73925788349566 30.539637351566373 -9.664369574908251 31.1510555076425 -9.556952538454702 31.732503866640712 -9.430599104297801 A33.10422816311423 33.10422816311423 0 0 1 32.19645402634768 -7.699113536091707 Z" id="SvgjsPath1094">
        </path>
      </g>
    </g>
  </g>
</svg>
